@startuml

title c'est bien de mettre un titre

class Carotte {
    variete: string
    usage: string
}

class Personne {
    id: int
    nom: string
    prenom: string
    patate: Patate
}

class Caillou {
    cher: boolean
}

class Perroquet {
    cher: boolean
}

class Carbone {
    cher: boolean
}

class Ragondin {
    cher: boolean
}

Carbone <|-- Personne
Perroquet --> Carotte
Carbone --> Caillou
Carbone --> Ragondin

@enduml
